<?xml version="1.0" encoding="UTF-8"?>
<svg width="218px" height="90px" viewBox="0 0 218 90" version="1.1" xmlns="http://www.w3.org/2000/svg" xmlns:xlink="http://www.w3.org/1999/xlink">
    <!-- Generator: Sketch 61.2 (89653) - https://sketch.com -->
    <title>Logo/Maistra/Select/Vertical/Default</title>
    <desc>Created with Sketch.</desc>
    <g id="Logo/Maistra/Select/Vertical/Default" stroke="none" stroke-width="1" fill="none" fill-rule="evenodd">
        <path d="M7.821,0 L7.137,0 L0,29.827 L1.795,29.827 L6.624,7.734 L16.966,29.827 L17.52,29.827 L27.264,7.734 L32.776,29.827 L37.262,29.827 L29.913,0 L29.229,0 L18.76,23.373 L7.821,0 Z M48.201,29.827 L53.287,17.477 L62.858,17.477 L68.2,29.827 L72.942,29.827 L59.995,0 L59.311,0 L46.364,29.827 L48.201,29.827 Z M53.927,15.981 L57.986,6.152 L62.217,15.981 L53.927,15.981 Z M84.565,29.827 L88.923,29.827 L88.923,0.77 L84.565,0.77 L84.565,29.827 Z M103.11,23.331 L101.572,23.673 C102.512,28.545 106.273,30.467 110.417,30.467 C116.315,30.467 120.16,27.006 120.16,21.836 C120.16,18.118 118.023,15.767 115.118,14.016 C113.238,12.904 111.572,11.922 109.905,10.896 C107.769,9.658 106.529,8.375 106.529,5.981 C106.529,3.376 108.323,1.453 111.357,1.453 C114.093,1.453 116.828,2.948 117.383,6.152 L118.921,5.811 C118.067,1.41 114.22,0 111.315,0 C105.973,0 102.939,3.205 102.939,7.222 C102.939,11.622 106.102,13.973 108.794,15.555 C109.948,16.238 111.016,16.836 112.17,17.562 C114.948,19.272 116.187,20.768 116.187,23.459 C116.187,26.493 114.135,28.972 110.46,28.972 C107.468,28.972 104.008,27.904 103.11,23.331 L103.11,23.331 Z M150.884,2.265 L150.884,0.768 L128.749,0.768 L128.749,2.265 L137.637,2.265 L137.637,29.827 L141.996,29.827 L141.996,2.265 L150.884,2.265 Z M161.865,29.827 L166.225,29.827 L166.225,15.34 L167.678,15.34 L178.66,29.827 L183.83,29.827 L172.464,14.956 C175.754,14.358 179.3,12.049 179.3,7.691 C179.3,2.862 175.498,0.768 170.84,0.768 L161.865,0.768 L161.865,29.827 Z M168.918,2.265 C172.164,2.265 175.07,3.76 175.07,7.606 C175.07,12.049 171.908,13.845 169.002,13.845 L166.225,13.845 L166.225,2.265 L168.918,2.265 Z M192.803,29.827 L197.888,17.477 L207.461,17.477 L212.801,29.827 L217.544,29.827 L204.598,0 L203.914,0 L190.966,29.827 L192.803,29.827 Z M198.529,15.981 L202.588,6.152 L206.819,15.981 L198.529,15.981 Z" id="Fill-100" fill="#0053A8"></path>
        <path d="M172.7492,49.2394 C172.5272,49.1614 172.1022,49.2974 171.6912,49.4294 C171.4812,49.4964 171.2822,49.5604 171.1282,49.5894 C170.8142,49.6494 170.5302,49.7824 170.2802,49.8994 C169.9712,50.0434 169.7042,50.1684 169.5002,50.0994 C169.0142,49.9354 167.8472,50.2684 166.7182,50.5884 C166.2732,50.7144 165.8532,50.8344 165.5172,50.9094 C165.4452,50.8854 165.3322,50.9274 165.1442,51.0054 C165.0532,51.0434 164.8952,51.1094 164.8742,51.1054 C164.8592,51.0914 164.8372,51.0864 164.8172,51.0904 L161.1452,51.9344 C160.8882,51.9944 160.6222,52.0554 160.3602,52.0834 C160.1712,52.1044 159.9842,52.1074 159.8032,52.1104 C159.6302,52.1134 159.4502,52.1174 159.2682,52.1354 C158.7602,52.1874 158.2642,52.3524 157.7852,52.5124 C157.5492,52.5914 157.3182,52.6674 157.0902,52.7304 C156.8472,52.7474 156.6112,52.7944 156.3132,52.8634 C156.2892,52.8694 156.2682,52.8724 156.2452,52.8774 C155.9522,52.8944 155.6702,52.8764 155.3702,52.9064 C155.0292,52.9414 154.6872,53.0404 154.3662,53.1404 C154.2872,53.1554 154.2122,53.1644 154.1442,53.1624 C153.9142,53.1554 153.7002,53.2454 153.4912,53.3284 C153.3362,53.3884 153.1912,53.4464 153.0672,53.4574 C153.0262,53.4674 152.9652,53.4314 152.8752,53.3804 C152.7472,53.3074 152.5632,53.2034 152.3362,53.2454 C152.1552,53.1524 151.9082,53.1634 151.6972,53.2834 C151.6172,53.2974 151.5562,53.3244 151.4872,53.3514 C151.4722,53.3504 151.4702,53.3504 151.4302,53.3244 C151.3762,53.2884 151.2952,53.2354 151.1692,53.2184 C151.1192,53.2114 151.0912,53.2104 151.0452,53.2334 C151.0232,53.2384 150.9932,53.2394 150.9652,53.2424 C150.8812,53.2494 150.8012,53.2564 150.7292,53.3004 C150.5852,53.3874 150.4792,53.4434 150.3962,53.4874 C150.0982,53.6474 150.0262,53.7034 149.7602,54.1354 C149.6912,54.1214 149.6042,54.1214 149.4992,54.1564 C149.3492,54.2054 149.2382,54.2334 149.1432,54.2254 C148.8772,54.2034 148.6102,54.2874 148.4332,54.3534 C148.3642,54.3784 148.2942,54.4034 148.2252,54.4274 C148.0602,54.4844 147.8952,54.5424 147.7352,54.6194 C147.5032,54.7314 147.2802,54.7884 147.0322,54.7984 C146.8392,54.8064 146.6072,54.8264 146.3562,54.9134 C145.8702,55.0834 145.7772,55.0934 145.3622,55.1214 C145.1702,55.1344 145.0122,55.1994 144.8762,55.3224 C144.8632,55.3344 144.8492,55.3484 144.8572,55.3484 L144.8582,55.3484 L144.6422,55.4124 C144.4152,55.4814 144.2002,55.5464 143.9912,55.5854 C143.6112,55.6564 143.2362,55.7754 142.8522,55.9004 C142.8042,55.9154 142.7572,55.9344 142.7092,55.9524 C142.6502,55.9764 142.5912,56.0004 142.5342,56.0114 C142.1782,56.0824 141.8152,56.2184 141.4122,56.4334 C141.3702,56.4564 141.2922,56.4974 141.2742,56.5024 L141.2622,56.5024 C140.9212,56.5024 140.6352,56.6704 140.3762,56.8524 C140.2482,56.9434 140.1422,56.9854 140.0452,56.9874 C139.7442,56.9904 139.4612,57.1024 139.2032,57.3194 C139.1052,57.4004 138.9972,57.4514 138.8282,57.4934 C138.5602,57.5604 138.4162,57.7614 138.3312,57.9054 C138.2272,58.0814 138.1692,58.2424 138.1552,58.3994 L138.1352,58.6314 C138.1272,58.7284 138.1202,58.8244 138.1102,58.9224 C138.1062,58.9194 138.1012,58.9224 138.0872,58.9314 C137.9422,59.0194 137.8752,59.1654 137.9072,59.3224 C137.9312,59.4374 138.0302,59.5224 138.1482,59.5274 L138.3462,59.5354 C138.4902,59.5394 138.6352,59.5444 138.7752,59.5584 C138.9502,59.5754 139.1122,59.5384 139.2752,59.4404 L139.3632,59.3874 C139.5172,59.2944 139.6722,59.2014 139.8212,59.0974 C139.8542,59.0744 139.8862,59.0694 139.9672,59.0624 C140.0672,59.0534 140.2012,59.0404 140.3402,58.9474 C140.6982,58.8264 141.0412,58.6514 141.3722,58.4824 C141.5302,58.4014 141.6872,58.3214 141.8452,58.2474 C142.1392,58.1094 142.4882,57.9534 142.8452,57.8424 L143.3532,57.6904 C143.8482,57.5444 144.3592,57.3914 144.8662,57.1964 C144.9632,57.1594 145.0612,57.1354 145.1592,57.1094 C145.3172,57.0684 145.4812,57.0264 145.6452,56.9424 C145.8542,56.8364 146.0222,56.8204 146.2372,56.8304 C146.3292,56.8364 146.4332,56.8064 146.5212,56.7524 C146.5962,56.7064 146.6712,56.6984 146.8142,56.6844 L146.9292,56.6744 C147.0492,56.6654 147.1842,56.6554 147.3252,56.6144 C147.5172,56.5584 147.7042,56.5334 147.9022,56.5054 C147.9632,56.4974 148.0232,56.4894 148.0842,56.4804 C148.0612,56.5544 148.0372,56.6284 148.0102,56.7024 C147.9702,56.8114 147.9262,56.9204 147.8822,57.0304 C147.7432,57.3754 147.5992,57.7324 147.5842,58.0554 C147.4492,58.2914 147.3702,58.5244 147.2942,58.7484 C147.2412,58.9044 147.1882,59.0614 147.1142,59.2174 C146.9042,59.6614 146.7552,60.1074 146.6102,60.5384 L146.5282,60.7794 C146.4562,60.9944 146.3912,61.2094 146.3262,61.4234 C146.1952,61.8554 146.0722,62.2634 145.8832,62.6794 C145.8742,62.6994 145.8682,62.7194 145.8642,62.7404 C145.8372,62.8934 145.7562,63.0614 145.6712,63.2394 C145.5482,63.4964 145.4212,63.7624 145.4192,64.0314 C145.4172,64.0394 145.4052,64.0664 145.3832,64.0974 C145.1742,64.3964 145.0622,64.6884 145.0412,64.9884 C145.0402,65.0114 145.0162,65.0724 145.0002,65.1134 L144.9772,65.1734 C144.8622,65.4774 144.7812,65.7784 144.7032,66.0704 L144.6612,66.2244 C144.5442,66.6544 144.4252,67.1174 144.3392,67.5884 C144.3092,67.7514 144.2652,67.9084 144.2072,68.0554 C144.0592,68.4324 143.9532,68.8294 143.8832,69.2664 C143.8512,69.4654 143.7882,69.6724 143.7212,69.8914 C143.6422,70.1514 143.5602,70.4194 143.5322,70.6734 C143.5272,70.6894 143.5182,70.7064 143.5042,70.7324 C143.2872,71.1624 143.1662,71.5984 143.0672,71.9504 C143.0132,72.1464 142.9512,72.3684 143.0282,72.5894 C143.0592,72.6784 143.0272,72.8234 143.0012,72.9254 C142.9662,73.0614 142.9402,73.1954 142.9152,73.3304 C142.9002,73.4114 142.8852,73.4934 142.8672,73.5754 L142.8352,73.7244 C142.7982,73.9034 142.7602,74.0824 142.7052,74.2624 C142.6502,74.4404 142.5962,74.6504 142.6132,74.8624 C142.6262,75.0254 142.6222,75.1624 142.5602,75.2994 C142.3812,75.6934 142.3632,76.0374 142.3462,76.3704 C142.3412,76.4624 142.3362,76.5544 142.3272,76.6464 C142.3002,76.9404 142.4782,77.1734 142.7812,77.2384 C142.8872,77.2614 142.9872,77.2734 143.0822,77.2734 C143.4792,77.2734 143.8012,77.0704 144.1412,76.6234 C144.2822,76.4364 144.3732,76.2594 144.4182,76.0824 L144.4392,76.0024 C144.4792,75.8474 144.5192,75.6934 144.5422,75.5424 L144.5882,75.2474 C144.6832,74.6344 144.7812,74.0004 144.8242,73.3864 C144.8452,73.0804 144.9062,72.7634 144.9792,72.4094 C145.0092,72.2644 145.0442,72.1174 145.0782,71.9714 C145.1792,71.5444 145.2832,71.1024 145.2782,70.6744 L145.6252,68.8504 C145.7822,68.6664 145.8192,68.4864 145.8492,68.3424 L145.8722,68.2434 C145.9102,68.0934 145.9412,67.9454 145.9712,67.7964 C146.0272,67.5214 146.0802,67.2624 146.1882,66.9974 C146.3882,66.5054 146.5462,66.0174 146.6582,65.5464 C146.6922,65.4014 146.7382,65.3034 146.8172,65.2064 C146.8902,65.1144 146.9722,64.9634 146.9822,64.8124 C147.0092,64.3564 147.1202,63.9714 147.3322,63.6004 C147.3822,63.5124 147.4102,63.4234 147.4312,63.3484 C147.5502,62.9104 147.7082,62.4584 147.8612,62.0224 C147.9362,61.8074 148.0112,61.5934 148.0822,61.3784 C148.1272,61.2424 148.1892,61.1074 148.2622,60.9884 C148.3892,60.7784 148.4742,60.5654 148.5212,60.3374 C148.5762,60.0784 148.6532,59.8484 148.7582,59.6344 C149.0512,59.0344 149.2652,58.5434 149.4292,58.0914 L149.4802,57.9424 C149.5372,57.7694 149.5862,57.6204 149.7042,57.4814 C149.8012,57.3684 149.8392,57.2264 149.8622,57.1164 C149.9062,56.8984 150.0352,56.6754 150.1722,56.4384 L150.2442,56.3134 C150.3072,56.2014 150.3582,56.1794 150.3952,56.1734 C150.6912,56.1214 150.9592,56.0154 151.2132,55.8514 C151.2822,55.8064 151.3862,55.7514 151.4942,55.7704 C151.6572,55.7914 151.8762,55.8114 152.1152,55.7824 C152.3222,55.7564 152.5302,55.6974 152.7302,55.6414 L152.8132,55.6174 C153.1482,55.5254 153.4832,55.4294 153.8162,55.3214 C153.8812,55.3014 153.9152,55.3044 153.9622,55.3174 C154.1192,55.3624 154.2942,55.3284 154.4822,55.2174 C154.5672,55.1674 154.6342,55.1424 154.6992,55.1344 C154.8702,55.1174 154.9932,54.9874 155.1012,54.8724 C155.1122,54.8604 155.1252,54.8454 155.1382,54.8314 C155.2022,54.8204 155.2682,54.8084 155.3332,54.7964 L155.3422,54.7994 C155.3942,54.8124 155.4402,54.8224 155.4712,54.8264 C155.6232,54.8504 155.7472,54.7844 155.8552,54.7024 C156.0342,54.6704 156.2122,54.6384 156.3992,54.6034 C156.5552,54.5734 156.7172,54.5464 156.8792,54.5194 C157.0642,54.4894 157.2502,54.4584 157.4302,54.4234 C157.5202,54.4054 157.7262,54.3934 157.9252,54.3814 C158.1432,54.3684 158.3482,54.3564 158.4492,54.3364 C158.7182,54.2834 159.0092,54.2284 159.3052,54.1734 C160.3542,53.9764 161.4392,53.7734 161.8272,53.5934 C162.1372,53.4494 163.2392,53.2754 164.2112,53.1224 C164.8132,53.0274 165.3822,52.9374 165.6762,52.8674 C165.9652,52.7984 166.0552,52.7134 166.1342,52.6384 C166.2042,52.5714 166.2652,52.5134 166.4792,52.4644 C166.8122,52.3884 167.1042,52.3584 167.3882,52.3294 C167.8932,52.2774 168.3712,52.2274 168.9642,51.9234 C170.2092,51.2854 170.4922,51.4484 170.7192,51.5784 C170.8792,51.6704 171.0312,51.7574 171.4082,51.5734 C172.6302,50.9764 173.1562,50.1904 173.1262,49.7134 C173.1132,49.4864 172.9782,49.3184 172.7492,49.2394 L172.7492,49.2394 Z M139.6362,63.1464 C139.5752,63.1454 139.5102,63.1504 139.4192,63.1584 C139.2452,63.1734 139.0652,63.3184 138.9912,63.4494 C138.9592,63.5054 138.9302,63.5624 138.9022,63.6204 C138.8642,63.6984 138.8262,63.7774 138.7702,63.8554 C138.5182,64.2084 138.2502,64.5524 137.9762,64.8774 C137.8262,65.0544 137.7042,65.2054 137.5982,65.3694 C137.4982,65.5244 137.4272,65.6214 137.3042,65.6724 C137.1882,65.7194 137.0682,65.8284 137.0112,65.9394 C136.9472,66.0644 136.8312,66.1554 136.6962,66.2614 L136.6092,66.3304 C136.3512,66.5394 136.0832,66.7554 135.8632,67.0124 C135.8082,67.0764 135.7432,67.1324 135.6792,67.1884 C135.5512,67.3004 135.4062,67.4274 135.3202,67.6044 C135.2752,67.6984 135.2002,67.7444 135.0722,67.8194 C134.9842,67.8704 134.8982,67.9224 134.8212,67.9904 C134.7532,68.0514 134.6862,68.1164 134.6322,68.1864 C134.4522,68.4164 134.2182,68.5824 134.0122,68.7144 C133.9152,68.7764 133.8192,68.8404 133.7232,68.9044 C133.5102,69.0454 133.2972,69.1864 133.0772,69.3074 L132.9982,69.3504 C132.8412,69.4344 132.6782,69.5214 132.5242,69.6884 C132.4282,69.7914 132.2922,69.8854 132.1532,69.9814 C132.0742,70.0364 131.9922,70.0854 131.9102,70.1354 C131.7712,70.2194 131.6322,70.3054 131.5062,70.4074 C131.4222,70.4754 131.3232,70.5244 131.2192,70.5754 C131.1092,70.6304 130.9852,70.6924 130.8662,70.7834 C130.7882,70.8424 130.6702,70.8824 130.5452,70.9194 C130.3222,70.9874 130.1342,71.0324 129.9682,71.0584 C129.8092,71.0834 129.5952,71.1164 129.4022,71.2994 C129.0332,71.4754 128.7582,71.5694 128.4882,71.6144 C128.2572,71.6524 128.0362,71.6474 127.8032,71.6454 C127.5812,71.6414 127.3512,71.6374 127.1152,71.6584 C127.1122,71.6564 127.0622,71.6344 127.0592,71.6334 C126.9112,71.5684 126.7432,71.4964 126.5092,71.4824 C126.3502,71.3124 126.1442,71.2274 125.9612,71.1514 L125.8482,71.1044 C125.7552,71.0634 125.7232,71.0244 125.6942,70.9524 C125.6592,70.8674 125.6232,70.7824 125.6022,70.6914 C125.5482,70.4594 125.4872,70.1954 125.3422,69.9594 C125.3182,69.9204 125.3132,69.9054 125.3122,69.9004 L125.2822,69.6994 C125.2142,69.2454 125.1492,68.8174 125.3002,68.3274 L125.3592,68.1334 C125.4312,67.8894 125.5002,67.6594 125.6042,67.4304 L125.7062,67.1974 C125.7662,67.0584 125.8252,66.9204 125.8952,66.7844 C125.9602,66.6554 126.0222,66.5254 126.0832,66.3964 C126.2852,65.9674 126.4752,65.5634 126.8322,65.2164 C126.8832,65.1694 126.9152,65.1164 126.9572,65.0494 L127.1172,64.8094 C127.2472,64.6164 127.3772,64.4224 127.4932,64.2254 C127.5832,64.0744 127.7052,63.9354 127.8342,63.7874 C127.9122,63.6984 127.9902,63.6094 128.0622,63.5174 C128.2202,63.4104 128.3232,63.2744 128.4152,63.1534 L128.4962,63.0494 C128.5602,62.9724 128.6352,62.9014 128.7102,62.8294 C128.8032,62.7404 128.8962,62.6514 128.9752,62.5544 C129.2242,62.2464 129.5162,61.9564 129.7982,61.6764 L129.9502,61.5254 C130.0272,61.5044 130.0852,61.4454 130.1162,61.3724 C130.1282,61.3564 130.1412,61.3414 130.1532,61.3254 C130.1802,61.2894 130.2222,61.2354 130.2352,61.2264 C130.3662,61.1654 130.4742,61.0904 130.5792,61.0184 C130.6222,60.9884 130.6652,60.9584 130.7092,60.9314 L130.8342,60.8514 C131.0592,60.7074 131.2922,60.5594 131.5212,60.4504 C131.7302,60.3514 131.9342,60.2404 132.1372,60.1294 L132.4132,59.9794 C132.4272,59.9714 132.4412,59.9624 132.4562,59.9554 C132.6062,59.9654 132.7352,59.9144 132.8432,59.8744 C132.8842,59.8604 132.9242,59.8454 132.9652,59.8344 C133.0332,59.8174 133.1002,59.8094 133.1682,59.8014 C133.2802,59.7884 133.3942,59.7734 133.5132,59.7364 C133.5602,59.7204 133.5762,59.7144 133.6662,59.7994 L133.6812,59.8644 C133.7342,60.0804 133.7732,60.2374 133.6722,60.4584 C133.5272,60.7804 133.4292,61.1304 133.3812,61.4974 C133.3422,61.7994 133.4512,62.0304 133.7052,62.1854 C133.8282,62.2604 133.9982,62.3404 134.2192,62.3094 C134.3672,62.2874 134.5292,62.2464 134.7282,62.1814 C134.8522,62.1404 134.9612,62.0464 135.0222,61.9724 C135.2762,61.6614 135.4782,61.3774 135.6372,61.1054 C135.7162,60.9714 135.8002,60.8104 135.8212,60.6254 C135.8432,60.4384 135.9182,60.2384 136.0722,59.9584 C136.1892,59.7434 136.2772,59.4984 136.3382,59.2014 C136.4352,58.7224 136.5272,58.2694 136.6752,57.8064 C136.7702,57.5104 136.7002,57.2504 136.4722,57.0534 C136.3642,56.9614 136.1762,56.8644 135.9012,56.9314 C135.8492,56.9434 135.7962,56.9634 135.7432,56.9834 L135.6802,57.0064 C135.4802,57.0734 135.1952,57.1994 135.0272,57.5184 C135.0222,57.5274 134.9982,57.5494 134.9102,57.5794 C134.8732,57.5934 134.8252,57.6104 134.8012,57.6124 C134.4362,57.6484 134.1062,57.6874 133.7402,57.8004 C133.2712,57.7224 132.7932,57.8214 132.3132,58.0974 C132.2872,58.1024 132.2602,58.1084 132.2372,58.1164 C131.9212,58.2194 131.6202,58.3704 131.3282,58.5154 L131.1342,58.6114 C130.7572,58.7974 130.4162,59.0424 130.0852,59.2804 C129.8632,59.4404 129.6412,59.6004 129.4102,59.7404 C129.3492,59.7764 129.3042,59.8214 129.2492,59.8764 L129.0992,60.0224 C128.9192,60.2014 128.7482,60.3704 128.5472,60.4964 C128.4502,60.5554 128.3772,60.6424 128.3182,60.7184 C128.0502,61.0644 127.7292,61.4584 127.3112,61.7574 C127.2522,61.8014 127.1722,61.8714 127.1282,61.9634 C127.0742,62.0724 126.9772,62.1754 126.8742,62.2844 C126.7702,62.3944 126.6622,62.5084 126.5752,62.6494 C126.4222,62.9014 126.2122,63.1454 126.0472,63.3294 C125.6182,63.8084 125.2902,64.3274 124.9742,64.8314 C124.8142,65.0844 124.6542,65.3374 124.4822,65.5864 C124.4292,65.6624 124.3992,65.7364 124.3732,65.8034 C124.3622,65.8294 124.3522,65.8564 124.3392,65.8814 C124.2592,66.0454 124.1872,66.2104 124.1162,66.3744 C123.9942,66.6534 123.8802,66.9174 123.7262,67.1774 C123.6382,67.3234 123.5902,67.4764 123.5472,67.6104 L123.5212,67.6914 C123.4532,67.8964 123.3902,68.1034 123.3392,68.3084 C123.3212,68.3864 123.3112,68.4634 123.3012,68.5404 C123.2902,68.6344 123.2802,68.7164 123.2492,68.7834 C123.1662,68.9624 123.1622,69.1174 123.1582,69.2424 C123.1562,69.2994 123.1562,69.3564 123.1422,69.4174 C123.1402,69.4254 123.1392,69.4334 123.1382,69.4404 C123.0002,69.6524 123.0362,69.8494 123.0662,70.0144 L123.0782,70.0884 C123.0962,70.1944 123.1122,70.2934 123.1072,70.3894 C123.0732,71.1244 123.3562,71.6764 123.6492,72.2494 C123.8822,72.7034 124.2522,73.1104 124.7502,73.4564 C124.9932,73.6264 125.3302,73.8214 125.7802,73.8284 C125.8622,73.8294 125.9422,73.8564 126.0342,73.8884 C126.1492,73.9274 126.2842,73.9734 126.4452,73.9734 C126.5052,73.9734 126.5702,73.9664 126.6382,73.9514 C126.7872,73.9164 126.9312,73.9034 127.0742,73.8904 C127.2202,73.8764 127.3662,73.8624 127.5162,73.8324 C127.5662,73.8214 127.6152,73.8214 127.6652,73.8204 C127.7192,73.8194 127.7742,73.8174 127.8292,73.8114 L127.8992,73.8034 C128.0162,73.7904 128.1492,73.7764 128.2862,73.7324 C128.6052,73.6304 128.9312,73.5644 129.2552,73.5344 C129.4402,73.5174 129.5922,73.4344 129.7032,73.3644 C129.7972,73.3054 129.8942,73.2574 130.0052,73.2194 C130.2322,73.1394 130.4672,73.0574 130.7032,72.9244 L130.8232,72.8554 C130.9632,72.7734 131.1092,72.6884 131.2222,72.6634 C131.4742,72.6074 131.6302,72.4514 131.7542,72.3254 C131.8042,72.2754 131.8532,72.2234 131.9112,72.1844 C131.9682,72.1444 132.0262,72.1064 132.0852,72.0724 C132.1252,72.0494 132.1662,72.0284 132.2072,72.0064 C132.2542,71.9814 132.3022,71.9574 132.3482,71.9304 L132.4512,71.8714 C132.7712,71.6904 133.1032,71.5024 133.3552,71.1644 C133.4262,71.1104 133.4942,71.0514 133.5632,70.9934 C133.7362,70.8454 133.9002,70.7054 134.0822,70.6704 C134.1142,70.6644 134.1452,70.6524 134.1722,70.6344 C134.2222,70.6024 134.2742,70.5714 134.3262,70.5404 C134.4512,70.4664 134.5802,70.3904 134.7002,70.2884 C135.0882,69.9634 135.4612,69.6234 135.8342,69.2834 L136.2812,68.8774 C136.4132,68.7584 136.5092,68.6464 136.5732,68.5364 C136.7532,68.2284 137.0272,67.9924 137.3172,67.7424 C137.4032,67.6684 137.4902,67.5934 137.5742,67.5174 L137.5782,67.5174 C137.6182,67.5124 137.6552,67.5074 137.6892,67.4984 C137.8222,67.4624 137.9232,67.3704 137.9622,67.2514 C137.9842,67.1824 137.9822,67.1094 137.9582,67.0444 C138.2542,66.8274 138.5142,66.5614 138.7692,66.2144 L138.8872,66.0534 C139.0762,65.7934 139.2542,65.5474 139.4782,65.3324 C139.5502,65.2634 139.6012,65.1854 139.6452,65.1174 L139.7722,64.9344 C139.8702,64.7944 139.9682,64.6554 140.0562,64.5134 C140.1432,64.3744 140.2302,64.2264 140.2702,64.0674 C140.3522,63.7384 140.3962,63.5104 140.2632,63.3344 C140.1332,63.1614 139.9302,63.1554 139.6362,63.1464 L139.6362,63.1464 Z M120.7732,62.9024 C120.5882,63.0634 120.4042,63.2124 120.1992,63.2614 C119.9402,63.3234 119.6992,63.4344 119.4162,63.5824 C119.1232,63.7364 118.7762,63.9014 118.4342,63.9654 C118.2322,64.0034 118.0322,64.0744 117.7942,64.1584 C117.6092,64.2244 117.4232,64.3014 117.2392,64.3864 C117.1032,64.4504 116.9682,64.5204 116.8332,64.5914 L116.6382,64.6924 C116.5992,64.7114 116.5612,64.7284 116.5232,64.7424 C116.5722,64.5934 116.6212,64.4454 116.6732,64.2954 C116.6992,64.2204 116.7342,64.1454 116.7752,64.0724 C116.9362,63.7884 117.1162,63.5114 117.2952,63.2334 C117.4582,62.9814 117.6222,62.7294 117.7712,62.4734 C117.7832,62.4714 117.7952,62.4704 117.8062,62.4724 C118.4702,62.5574 119.1322,62.6444 119.7912,62.7304 L119.9782,62.7554 C119.9992,62.7594 120.0212,62.7594 120.0432,62.7554 C120.2702,62.7274 120.4592,62.7864 120.6782,62.8554 C120.7132,62.8654 120.7482,62.8764 120.7832,62.8874 C120.7802,62.8934 120.7772,62.8984 120.7732,62.9024 L120.7732,62.9024 Z M93.6542,63.6774 C93.8042,63.8194 94.0022,63.8214 94.1472,63.8234 L94.6542,63.8414 C95.0262,63.8554 95.3972,63.8694 95.7692,63.8804 C95.8142,63.8824 95.8542,63.8854 95.8912,63.8914 C95.8682,63.9024 95.8462,63.9124 95.8262,63.9194 C95.5562,64.0064 95.2842,64.0824 95.0122,64.1564 C94.9632,64.1704 94.9132,64.1784 94.8632,64.1864 C94.7602,64.2044 94.6432,64.2244 94.5232,64.2784 C94.1702,64.4404 93.8172,64.5264 93.4432,64.6174 C93.2372,64.6674 93.0312,64.7184 92.8262,64.7814 C92.6842,64.8234 92.5212,64.8794 92.3712,65.0014 C92.2842,65.0714 92.2502,65.0634 92.2322,65.0604 C92.0272,65.0154 91.8012,65.0604 91.5402,65.1984 L91.4792,65.2294 C91.3732,65.2854 91.2662,65.3414 91.1622,65.4014 C91.0912,65.4414 91.0212,65.4654 90.9492,65.4794 C91.0142,65.3714 91.0802,65.2694 91.1552,65.1774 C91.4392,64.8334 91.7312,64.4594 91.8982,64.0134 C91.9232,63.9474 91.9862,63.8614 92.0472,63.7774 C92.0762,63.7374 92.1062,63.6974 92.1282,63.6634 C92.1362,63.6544 92.1562,63.6414 92.1732,63.6324 C92.3772,63.6884 92.6682,63.7324 93.0142,63.6034 C93.0852,63.6074 93.1592,63.6074 93.2312,63.6064 C93.4102,63.6084 93.5762,63.6044 93.6542,63.6774 L93.6542,63.6774 Z M69.4992,73.6624 C69.5102,73.7204 69.5142,73.7934 69.5092,73.8804 C69.4932,74.1704 69.2932,74.4114 68.9472,74.5614 C68.1382,74.9104 67.5172,75.1664 66.9312,75.3944 C66.7812,75.4524 66.6222,75.4844 66.4532,75.5184 C66.3692,75.5354 66.2842,75.5524 66.1992,75.5724 C66.1712,75.5794 66.1422,75.5834 66.1132,75.5894 C66.0162,75.6054 65.8952,75.6254 65.7832,75.6974 C65.5712,75.8344 65.3492,75.8804 65.1142,75.9284 C64.9582,75.9604 64.8022,75.9924 64.6462,76.0464 C64.5202,76.0904 64.3732,76.0944 64.2312,76.0944 C63.5502,76.0884 62.7442,76.0864 61.9262,76.1124 C61.5692,76.1254 61.2202,76.0824 60.9192,75.9934 C60.7112,75.9324 60.4992,75.8784 60.2862,75.8244 C60.1692,75.7944 60.0512,75.7654 59.9482,75.7384 C60.0082,75.6004 60.1142,75.4784 60.2702,75.3684 C60.3282,75.3274 60.3852,75.2814 60.4422,75.2344 C60.5272,75.1654 60.6142,75.0934 60.6832,75.0674 C60.9782,74.9554 61.1972,74.7734 61.4092,74.5974 C61.5162,74.5084 61.6232,74.4184 61.7392,74.3424 C61.7652,74.3254 61.7872,74.3044 61.8062,74.2794 C62.0052,74.0094 62.3212,73.8494 62.6282,73.7084 C62.8772,73.5944 63.1102,73.4584 63.3362,73.3274 L63.5592,73.1974 C63.7042,73.1154 63.8472,73.0304 63.9902,72.9464 C64.3512,72.7334 64.7252,72.5124 65.1022,72.3434 C65.1222,72.3344 65.1412,72.3234 65.1582,72.3094 C65.3702,72.1394 65.6072,72.0114 65.8592,71.8764 C66.1022,71.7474 66.3532,71.6124 66.5872,71.4334 C66.6482,71.3864 66.7312,71.3474 66.8662,71.2844 C66.9152,71.2604 66.9492,71.2534 66.9392,71.2414 C67.0572,71.3214 67.1842,71.3904 67.3122,71.4594 C67.4402,71.5284 67.5692,71.5974 67.6862,71.6814 C67.8562,71.8044 68.0132,71.9404 68.1702,72.0764 C68.4452,72.3154 68.7292,72.5614 69.0872,72.7464 C69.1202,72.7634 69.1502,72.7924 69.1672,72.8224 C69.2962,73.0564 69.4372,73.3384 69.4992,73.6624 L69.4992,73.6624 Z M122.6902,61.9994 C122.5682,61.8954 122.4452,61.7914 122.3172,61.6944 C122.2162,61.6174 122.0922,61.5614 121.9592,61.5334 C121.6952,61.4774 121.4282,61.4254 121.1622,61.3724 C120.9212,61.3254 120.6812,61.2774 120.4412,61.2274 L120.3302,61.2024 C120.1422,61.1574 119.9292,61.1064 119.6662,61.1714 C119.6492,61.1714 119.5992,61.1514 119.5812,61.1444 C119.4362,61.0864 119.2642,61.0674 119.0652,61.0614 C119.0342,61.0584 119.0052,61.0594 118.9762,61.0554 L118.9772,61.0544 C119.0562,60.9824 119.1382,60.9154 119.2192,60.8484 C119.3732,60.7214 119.5332,60.5894 119.6782,60.4304 C119.8112,60.2844 119.9542,60.2164 120.1132,60.2264 C120.2132,60.2354 120.4452,60.2534 120.5772,60.0594 C120.6362,59.9714 120.7162,59.9214 120.8432,59.8914 C120.9872,59.8564 121.1312,59.8054 121.2752,59.7544 C121.5162,59.6694 121.7432,59.5874 121.9412,59.6034 C121.9712,59.6054 122.0012,59.6034 122.0302,59.5944 C122.0912,59.5784 122.1512,59.5644 122.2112,59.5504 C122.3942,59.5064 122.6012,59.4574 122.8092,59.3394 C122.8972,59.2884 122.9902,59.2594 123.0972,59.2254 L123.2202,59.1844 C123.4122,59.1174 123.6032,59.0774 123.8292,59.0384 L123.9382,59.0204 C124.1062,58.9934 124.2732,58.9644 124.4412,58.9164 C124.5342,58.8894 124.6172,58.8434 124.6902,58.8024 C124.7392,58.7744 124.7902,58.7454 124.8252,58.7354 C124.8772,58.7194 124.9302,58.7154 124.9822,58.7104 C125.0732,58.7014 125.1752,58.6904 125.2852,58.6494 L125.4972,58.5704 C125.7962,58.4614 126.1052,58.3484 126.4152,58.1634 C126.7332,57.9744 127.0702,57.8434 127.4162,57.7744 C127.7922,57.7004 128.1282,57.5794 128.4442,57.4044 C128.7422,57.2394 128.9642,57.1794 129.1402,57.2154 C129.2452,57.2364 129.3432,57.2054 129.4072,57.1804 C129.6262,57.0984 129.8002,56.9424 129.9102,56.7294 C130.0202,56.5134 129.9272,56.2284 129.7012,56.0924 C129.5662,56.0114 129.4192,55.9954 129.3012,56.0474 C129.2122,56.0864 129.1252,56.0914 129.0162,56.0964 C128.9462,56.1014 128.8762,56.1054 128.8052,56.1164 C128.6582,56.1394 128.5092,56.1654 128.3612,56.1924 C128.1542,56.2304 127.9472,56.2684 127.7392,56.2944 C127.6382,56.3084 127.5522,56.3544 127.4772,56.3944 L127.4142,56.4264 C127.0612,56.5924 126.7692,56.6764 126.4942,56.6904 C126.0072,56.7154 125.5752,56.8294 125.1732,57.0394 C125.0782,57.0894 124.9812,57.1304 124.8852,57.1644 C124.8642,57.1714 124.8492,57.1764 124.8392,57.1794 C124.6442,57.1114 124.4592,57.1744 124.3322,57.2174 C124.0802,57.3034 123.8282,57.3844 123.5512,57.4714 C123.3642,57.4114 123.1822,57.4654 123.0332,57.5104 L122.6832,57.6034 C122.2912,57.7064 121.8982,57.8084 121.5042,57.8994 L121.2462,57.9554 C120.7942,58.0534 120.3272,58.1534 119.8522,58.4174 C119.8342,58.4274 119.7842,58.4334 119.7432,58.4374 L119.6782,58.4454 C119.5422,58.4644 119.4062,58.4804 119.2642,58.4974 L119.0752,58.5214 C119.0212,58.5274 118.9712,58.5504 118.9312,58.5874 C118.7712,58.7364 118.5752,58.8524 118.3322,58.9414 C118.0882,59.0314 117.8852,59.1264 117.6932,59.2414 C117.5292,59.3394 117.3522,59.4134 117.2012,59.4734 C116.9562,59.5704 116.7682,59.6904 116.6092,59.8494 C116.4902,59.9684 116.3832,60.0714 116.2602,60.1304 C115.7862,60.3584 115.5312,60.7434 115.5052,61.2744 L115.4992,61.3434 C115.4902,61.4494 115.4782,61.5814 115.5302,61.7044 C115.5882,61.8444 115.6202,62.0074 115.6542,62.1794 C115.6752,62.2904 115.6972,62.4004 115.7252,62.5064 C115.7092,62.5424 115.6952,62.5784 115.6792,62.6144 C115.6252,62.7434 115.5712,62.8724 115.5002,62.9964 C115.2392,63.4504 115.0442,63.9394 114.8852,64.5354 C114.8442,64.6894 114.7742,64.8274 114.6652,64.9674 C114.5392,65.1304 114.4312,65.3044 114.3212,65.4804 L114.2202,65.6414 C113.9862,65.7754 113.7692,65.9414 113.5582,66.1024 C113.3132,66.2904 113.0822,66.4674 112.8302,66.5944 C112.8022,66.6084 112.7782,66.6274 112.7582,66.6494 C112.5722,66.8484 112.3432,66.9644 112.0642,67.0964 C111.9062,67.1714 111.7792,67.2854 111.6742,67.4444 C111.6462,67.4844 111.6202,67.5064 111.5422,67.5174 C111.4922,67.5244 111.3202,67.5564 111.1992,67.6734 C111.0652,67.8024 110.9062,67.8964 110.7382,67.9954 C110.6202,68.0644 110.5012,68.1354 110.3882,68.2174 C110.0512,68.4614 109.7212,68.6934 109.3712,68.8484 C109.1882,68.9304 109.0172,69.0584 108.8582,69.1814 C108.7422,69.2714 108.6202,69.3524 108.5002,69.4324 C108.4072,69.4944 108.3142,69.5564 108.2232,69.6224 C108.0022,69.7824 107.8442,69.8884 107.6732,69.9104 C107.5902,69.9204 107.5022,69.9674 107.4432,70.0334 C107.3262,70.1654 107.1822,70.2204 106.9992,70.2894 L106.9422,70.3114 C106.8012,70.3644 106.7042,70.4264 106.6372,70.5054 C106.5592,70.5984 106.4542,70.6564 106.3322,70.7244 C106.2332,70.7794 106.1202,70.8424 106.0162,70.9314 C105.8142,71.1024 105.5952,71.2164 105.3282,71.3354 C105.2832,71.3554 105.2382,71.3724 105.1932,71.3904 C105.0022,71.4664 104.7872,71.5534 104.6042,71.7584 L104.4822,71.8224 C104.3562,71.8894 104.2292,71.9554 104.1002,72.0134 C104.0232,72.0494 103.9442,72.0774 103.8652,72.1074 C103.7482,72.1494 103.6312,72.1934 103.5182,72.2514 C102.9132,72.5604 102.3682,72.8204 101.8162,72.8754 C101.7482,72.8824 101.6942,72.9064 101.6332,72.9354 C101.5532,72.9554 101.4852,72.9554 101.4522,72.9344 C101.4312,72.9224 101.4162,72.8944 101.4072,72.8534 C101.3762,72.7134 101.4092,72.5284 101.4412,72.3494 C101.5322,71.8284 101.7172,71.2844 101.8952,70.7574 L102.0332,70.3474 C102.0682,70.2414 102.1132,70.1544 102.1592,70.1044 C102.4822,69.7594 102.6232,69.3954 102.7612,68.9904 L102.7882,68.9094 C102.8522,68.7184 102.9062,68.5544 103.0462,68.4114 C103.0652,68.3914 103.0822,68.3674 103.0942,68.3424 C103.1512,68.2234 103.2212,68.1064 103.2912,67.9904 C103.4592,67.7124 103.6322,67.4244 103.6592,67.1074 C103.6652,67.0894 103.6762,67.0714 103.6892,67.0464 L103.7912,66.8494 C103.8712,66.6924 103.9502,66.5334 104.0472,66.3824 C104.1492,66.2224 104.1942,66.0664 104.2332,65.9284 C104.2672,65.8124 104.2962,65.7134 104.3542,65.6184 C104.5622,65.2814 104.6662,64.9414 104.7662,64.6134 L104.8612,64.3074 C104.8952,64.1954 104.9292,64.0834 104.9682,63.9714 C105.0042,63.8684 105.0612,63.7874 105.1542,63.7084 C105.3982,63.5024 105.5532,63.2324 105.6142,62.9074 C105.6672,62.6224 105.7542,62.3864 105.8862,62.1674 C105.9662,62.0344 106.0712,61.8304 106.1202,61.6104 C106.1642,61.4134 106.2632,61.2044 106.4332,60.9524 C106.5212,60.8204 106.5892,60.6874 106.6562,60.5524 L106.7042,60.4574 C106.8112,60.2484 106.9072,60.0374 107.0032,59.8254 C107.1992,59.3974 107.3842,58.9924 107.6522,58.6054 C107.7092,58.5234 107.7342,58.4394 107.7652,58.3384 C107.7802,58.2924 107.7932,58.2454 107.8052,58.1994 C107.8212,58.1404 107.8352,58.0824 107.8602,58.0264 C108.0052,57.7064 108.1162,57.3864 108.2232,57.0764 C108.3042,56.8404 108.3842,56.6064 108.4802,56.3724 C108.5202,56.2744 108.5422,56.1714 108.5432,56.0734 C108.5452,55.8884 108.5492,55.3994 108.0462,55.2834 C108.0332,55.2804 108.0092,55.2684 107.9862,55.2574 L107.9152,55.2264 C107.7422,55.1554 107.5642,55.1594 107.3652,55.2464 C107.3382,55.2584 107.2922,55.2784 107.2922,55.2784 C106.8762,55.2544 106.4832,55.4044 106.1192,55.5654 C106.0102,55.6124 105.8982,55.6304 105.7582,55.6524 C105.6672,55.6674 105.5762,55.6774 105.4852,55.6884 C105.1662,55.7264 104.8362,55.7654 104.4792,55.9454 C104.4372,55.9674 104.3662,55.9724 104.2912,55.9784 C104.2372,55.9824 104.1832,55.9864 104.1292,55.9954 L102.9122,56.1974 C102.8812,56.2024 102.8512,56.2134 102.8242,56.2294 C102.5482,56.3914 102.2822,56.4094 101.9752,56.4304 L101.8612,56.4394 C101.7392,56.4484 101.6052,56.4764 101.4422,56.5254 C101.3362,56.5584 101.1992,56.6074 101.0832,56.6954 C100.9872,56.7684 100.8992,56.8054 100.7912,56.8154 C100.7022,56.8244 100.6112,56.8364 100.5202,56.8484 C100.3972,56.8664 100.2752,56.8834 100.1552,56.8894 C99.8762,56.9034 99.6352,56.9684 99.3972,57.0944 C99.2492,57.1734 99.0932,57.2124 98.9702,57.1944 C98.7252,57.1604 98.4802,57.2314 98.2232,57.4014 C98.1782,57.4314 98.1222,57.4584 98.0562,57.4844 C97.7562,57.5994 97.5822,57.6174 97.4582,57.5444 C97.3652,57.4894 97.2632,57.4704 97.1752,57.4614 C97.1652,57.3774 97.1842,57.2724 97.2122,57.1324 C97.2272,57.0574 97.2422,56.9834 97.2512,56.9104 C97.2902,56.6064 97.1662,56.3644 96.9052,56.2284 C96.6902,56.1164 96.4332,56.0764 96.0942,56.1074 C96.0092,56.1144 95.9202,56.1414 95.8432,56.1834 C95.2752,56.4954 94.6282,56.8794 94.1322,57.4964 C94.0782,57.5644 94.0202,57.6294 93.9622,57.6954 C93.9122,57.7534 93.8602,57.8114 93.8112,57.8704 C93.6842,58.0254 93.5572,58.1794 93.4292,58.3364 L93.3282,58.4604 L93.0732,58.5604 C92.8232,58.6574 92.5742,58.7534 92.3272,58.8644 C92.2162,58.9134 92.1022,58.9464 91.9882,58.9794 C91.7622,59.0454 91.5082,59.1194 91.2702,59.3064 L91.1632,59.3404 C90.9242,59.4154 90.6772,59.4934 90.4282,59.6434 C90.4182,59.6494 90.3812,59.6604 90.3462,59.6564 C89.9582,59.6444 89.6552,59.7304 89.3662,59.9494 C89.3532,59.9584 89.3062,59.9714 89.2762,59.9804 C89.2182,59.9964 89.1602,60.0144 89.1052,60.0404 C88.9682,60.1054 88.8262,60.1544 88.6852,60.2024 C88.5172,60.2614 88.3512,60.3194 88.1892,60.3994 C88.0032,60.4914 87.8602,60.5714 87.7142,60.5574 C87.5082,60.5504 87.3122,60.6284 87.1552,60.7774 C87.0682,60.8614 86.9612,60.9224 86.8092,60.9774 C86.6882,61.0204 86.5692,61.0704 86.4492,61.1204 C86.2152,61.2184 85.9932,61.3114 85.7722,61.3464 C85.6232,61.3704 85.4852,61.4314 85.3512,61.4894 C85.2932,61.5144 85.2362,61.5404 85.1372,61.5774 C85.1102,61.5874 85.0662,61.6044 85.0762,61.6084 C84.8692,61.5784 84.7032,61.6384 84.5672,61.6994 C84.3572,61.7934 84.1182,61.8774 83.8162,61.9654 C83.3622,62.0964 82.9102,62.2704 82.4732,62.4394 C82.2572,62.5224 82.0412,62.6054 81.8252,62.6834 C81.6872,62.7334 81.5502,62.7964 81.4132,62.8594 C81.1652,62.9724 80.9312,63.0794 80.7042,63.0984 C80.6522,63.1034 80.6022,63.1234 80.5622,63.1564 C80.3782,63.3074 80.1742,63.3524 79.9382,63.4044 C79.8632,63.4204 79.7892,63.4364 79.7162,63.4564 C79.4362,63.5304 79.1972,63.6444 78.9392,63.8284 C78.7362,63.9724 78.4922,64.0864 78.2572,64.1964 L78.2042,64.2214 C78.1672,64.2394 78.1162,64.2494 78.0582,64.2614 C77.9822,64.2774 77.8962,64.2944 77.8072,64.3344 C77.7192,64.3734 77.6452,64.4284 77.5792,64.4764 C77.5272,64.5134 77.4782,64.5494 77.4412,64.5644 C77.1042,64.7044 76.7702,64.8584 76.4362,65.0124 C75.9502,65.2374 75.4472,65.4694 74.9472,65.6484 C74.8412,65.6864 74.7352,65.7444 74.5892,65.8254 L74.3282,65.9684 C74.0672,66.1094 73.8052,66.2524 73.5532,66.4124 C73.3682,66.5304 73.1842,66.6054 72.9632,66.6814 C72.4192,66.8714 71.9252,67.0654 71.4522,67.2764 C71.3192,67.3354 71.1872,67.4014 71.0552,67.4684 C70.7822,67.6054 70.5242,67.7354 70.2562,67.8014 C70.0892,67.8424 69.9412,67.9554 69.7742,68.0824 C69.6582,68.1704 69.5372,68.2294 69.3702,68.2804 C69.0982,68.3634 68.8252,68.4594 68.5522,68.5554 L67.8462,68.8034 C67.8032,68.7854 67.7602,68.7694 67.7172,68.7524 C67.5772,68.6994 67.4442,68.6484 67.3642,68.5804 C67.2142,68.4544 67.0472,68.3714 66.8852,68.2914 C66.7772,68.2374 66.6692,68.1854 66.5732,68.1174 C66.4942,68.0624 66.4182,68.0044 66.3412,67.9454 C66.1822,67.8244 66.0172,67.6994 65.8272,67.5944 C65.7272,67.5374 65.6362,67.4694 65.5452,67.4024 C65.3372,67.2484 65.1022,67.0734 64.7592,67.0114 C64.7602,67.0084 64.7582,67.0034 64.7522,66.9934 C64.6512,66.8184 64.4822,66.7024 64.2512,66.6484 C64.2222,66.6414 64.1942,66.6334 64.1672,66.6254 C64.1482,66.5324 64.0702,66.4654 63.9742,66.4384 C63.9572,66.4334 63.9402,66.4304 63.9222,66.4304 L63.9022,66.4204 C63.8432,66.3934 63.7822,66.3664 63.7312,66.3304 C63.4772,66.1514 63.2252,65.9694 62.9742,65.7864 L62.6772,65.5704 C62.6492,65.5504 62.6182,65.5364 62.5852,65.5284 C62.4162,65.4884 62.2912,65.3894 62.1472,65.2734 C62.0282,65.1784 61.8942,65.0714 61.7252,64.9944 C61.4892,64.7184 61.1712,64.5444 60.8392,64.3754 C60.7302,64.3204 60.6312,64.2444 60.5262,64.1634 C60.3552,64.0324 60.1622,63.8844 59.8952,63.8064 C59.8522,63.7944 59.8472,63.7924 59.8452,63.7374 C59.8402,63.5854 59.7422,63.4134 59.5652,63.3824 C59.4782,63.3664 59.4162,63.3214 59.3152,63.2424 C59.2112,63.1614 59.0812,63.0604 58.8962,63.0144 C58.8642,63.0064 58.8422,62.9964 58.8052,62.9264 C58.7112,62.7444 58.5692,62.6104 58.3812,62.5294 C58.2682,62.4804 58.2362,62.4274 58.2212,62.3904 C58.1582,62.2334 58.0362,62.1554 57.9462,62.0984 C57.9252,62.0854 57.9042,62.0724 57.8842,62.0564 C57.4612,61.7314 57.0222,61.3944 56.7072,60.9824 C56.6172,60.8654 56.5412,60.7404 56.4642,60.6154 C56.3112,60.3654 56.1532,60.1074 55.9072,59.9014 C55.8962,59.8864 55.8812,59.8334 55.8702,59.7984 C55.8582,59.7604 55.8472,59.7224 55.8332,59.6874 C55.7482,59.4654 56.0212,59.2444 56.1432,59.1604 L56.2372,59.0984 C56.3192,59.0464 56.4112,58.9884 56.4902,58.9094 C56.7692,58.6354 57.0982,58.4234 57.4462,58.1984 L57.7652,57.9904 C57.9892,57.8414 58.2002,57.7004 58.4372,57.6534 C58.6622,57.6084 58.8602,57.4834 59.0332,57.3734 L59.0782,57.3454 C59.2952,57.2084 59.5192,57.0664 59.7362,56.9824 L60.0162,56.8774 C60.3722,56.7464 60.7392,56.6114 61.0892,56.3934 C61.2632,56.3614 61.4142,56.2814 61.5482,56.2094 C61.6222,56.1704 61.6952,56.1304 61.7712,56.1024 L61.8732,56.0654 C62.0562,55.9994 62.2642,55.9254 62.4302,55.7934 C62.5262,55.7164 62.6252,55.6934 62.7512,55.6634 C62.8512,55.6404 62.9492,55.6154 63.0472,55.5724 C63.1242,55.5374 63.1982,55.4924 63.2722,55.4454 C63.3112,55.4214 63.3492,55.3974 63.3882,55.3764 L63.4382,55.3484 C63.4702,55.3304 63.5232,55.3004 63.5372,55.2964 C63.8012,55.2694 64.0512,55.1814 64.3212,55.0194 C64.4142,54.9634 64.4952,54.9404 64.5172,54.9404 C64.7302,54.9414 64.9222,54.8734 65.0882,54.8094 L65.2032,54.7664 C65.3502,54.7134 65.4972,54.6554 65.6442,54.5974 C66.0292,54.4454 66.3932,54.3014 66.7662,54.2564 C67.1142,54.2154 67.4662,54.0604 67.6992,53.9374 C68.0622,53.7454 68.4222,53.6834 68.8042,53.6174 L68.9952,53.5844 C69.1372,53.5614 69.2792,53.5374 69.4202,53.4964 C70.2222,53.2614 71.0392,53.0634 71.9192,52.8894 C72.4652,52.7814 73.0022,52.7364 73.5612,52.7574 C73.7062,52.7644 73.8792,52.7484 74.0452,52.6104 C74.1012,52.5634 74.1542,52.5414 74.2202,52.5334 L74.4112,52.5174 C74.5992,52.5024 74.7932,52.4874 74.9942,52.4334 C75.5822,52.2764 76.1602,52.2264 76.6892,52.1964 C76.7762,52.1944 76.8952,52.1914 77.0052,52.1224 C77.1452,52.0334 77.2392,52.0394 77.3952,52.0894 C77.5612,52.1424 77.7422,52.1834 77.9322,52.2124 C78.3652,52.2814 78.8112,52.1304 79.2182,51.7854 C79.5022,51.5444 79.6272,51.2254 79.5612,50.9114 C79.4732,50.4884 79.1912,50.2164 78.7672,50.1454 C78.5692,50.1124 78.3582,50.0834 78.1352,50.1274 C77.8112,50.1934 77.5032,50.1894 77.1782,50.1854 L76.9182,50.1834 C76.3932,50.1854 75.2982,50.3334 74.7272,50.5164 C74.1442,50.7024 73.5722,50.7964 72.9262,50.7854 C72.6192,50.7734 72.3362,50.8224 72.0332,50.9124 C71.2832,51.1314 70.6092,51.3074 69.9532,51.2794 C69.7422,51.2664 69.5422,51.3444 69.3432,51.4294 L69.2912,51.4514 C68.9372,51.6024 68.5882,51.7634 68.2832,51.7374 C68.2032,51.7384 68.1102,51.7544 68.0092,51.7954 C67.6972,51.9214 67.3852,52.0144 67.0552,52.1134 C66.8092,52.1864 66.5622,52.2614 66.3172,52.3474 C66.1932,52.3924 66.0682,52.4304 65.9452,52.4694 C65.8442,52.5004 65.7442,52.5324 65.6442,52.5654 C65.4332,52.6364 65.2342,52.7044 65.0382,52.7144 C64.9092,52.7204 64.7872,52.7744 64.6792,52.8214 L64.6162,52.8484 C64.4302,52.9244 64.2452,53.0024 64.0602,53.0804 L63.5942,53.2754 C63.5092,53.3104 63.4222,53.3514 63.3352,53.3904 C63.1412,53.4804 62.9572,53.5654 62.7942,53.5924 C62.5532,53.6334 62.3492,53.7334 62.1512,53.8304 C62.0112,53.8994 61.8782,53.9644 61.7462,53.9994 C61.7152,54.0084 61.6852,54.0224 61.6582,54.0424 C61.4842,54.1714 61.2882,54.2424 61.0222,54.2704 C60.7662,54.2954 60.5762,54.4294 60.4082,54.5474 C60.1122,54.7554 59.7242,54.9974 59.3522,55.0334 C58.8792,55.0774 58.5112,55.2834 58.2142,55.4774 C58.1382,55.5274 58.0562,55.5674 57.9732,55.6074 C57.7682,55.7074 57.5362,55.8214 57.3852,56.0414 C57.3742,56.0504 57.3252,56.0754 57.2612,56.0944 C56.5862,56.2894 56.0742,56.7004 55.7032,57.0364 L55.6122,57.1204 C55.4172,57.2984 55.2172,57.4824 55.0072,57.5914 C54.5502,57.8294 54.2262,58.0594 53.9642,58.3354 C53.4392,58.5944 53.3232,59.0134 53.2212,59.3774 C53.0892,59.8514 53.1382,60.2914 53.3642,60.6494 C53.4192,60.7374 53.4712,60.8274 53.5232,60.9184 C53.7082,61.2404 53.8992,61.5744 54.2432,61.8274 C54.2792,61.8524 54.3132,61.9024 54.3532,61.9594 C54.3882,62.0104 54.4242,62.0614 54.4652,62.1074 L54.5012,62.1504 C54.5702,62.2314 54.6562,62.3314 54.7832,62.4014 C54.9712,62.5044 55.0752,62.6354 55.1122,62.8114 C55.1662,63.0764 55.3422,63.2714 55.6352,63.3914 C55.9742,63.5314 56.2372,63.7604 56.5162,64.1594 C56.6802,64.3924 56.8832,64.6234 57.2502,64.7274 C57.2612,64.7304 57.2862,64.7504 57.3052,64.7834 C57.4052,64.9574 57.5682,65.0684 57.8362,65.1364 C57.9532,65.3894 58.1992,65.4904 58.3832,65.5664 L58.4472,65.5934 C58.8102,65.7484 59.1192,65.9594 59.4472,66.1814 C59.6782,66.3404 59.9182,66.5034 60.1792,66.6424 C60.3252,66.8914 60.5712,67.0154 60.7902,67.1124 C60.9122,67.1664 61.0192,67.2604 61.1332,67.3604 L61.2312,67.4464 C61.8282,67.9524 61.8602,67.9704 62.9752,68.3924 C62.9812,68.3964 63.0292,68.4264 63.0352,68.4294 C63.1152,68.4744 63.2012,68.5154 63.2862,68.5564 C63.4502,68.6344 63.6042,68.7074 63.6992,68.8034 C63.8982,69.0074 64.1382,69.1354 64.3702,69.2584 L64.4632,69.3004 C64.6572,69.5634 64.9552,69.6954 65.2192,69.7894 C65.3252,69.8274 65.4122,69.8844 65.4092,70.1664 C65.4002,70.1894 65.3622,70.2364 65.3692,70.2394 L65.1452,70.3124 C64.9062,70.3924 64.6662,70.4714 64.4262,70.5424 C64.1612,70.6214 63.9182,70.7384 63.6842,70.8994 C63.6132,70.9484 63.5402,70.9924 63.4662,71.0374 C63.3452,71.1114 63.2252,71.1864 63.1152,71.2724 C62.7642,71.5464 62.3862,71.7774 61.9592,71.9804 L61.8142,72.0534 C61.7282,72.0964 61.6432,72.1404 61.5572,72.1724 C61.2422,72.2874 60.9772,72.4614 60.6752,72.6864 C60.2872,72.9764 59.8622,73.2734 59.3382,73.6194 C59.1642,73.7354 59.0262,73.8634 58.8932,73.9884 L58.8032,74.0734 C58.7012,74.1664 58.6042,74.2634 58.5082,74.3614 C58.2732,74.5974 58.0512,74.8204 57.7642,74.9764 C57.6912,75.0164 57.6232,75.0714 57.5562,75.1274 L57.4962,75.1764 C57.1082,75.4834 56.6142,75.9794 56.7992,76.7414 C56.8532,76.9644 56.9592,77.1544 57.1232,77.3254 C57.4072,77.6214 57.7912,77.7694 58.0932,77.8654 C58.1832,77.8944 58.2892,77.9074 58.4172,77.9014 C58.7922,77.8864 59.1842,77.9164 59.6462,77.9954 C59.7762,78.0164 59.9052,78.0404 60.0332,78.0654 C60.3332,78.1224 60.6432,78.1794 60.9672,78.2104 C61.3182,78.2424 61.6472,78.2584 61.9612,78.2584 C62.3812,78.2584 62.7752,78.2294 63.1642,78.1714 L63.2482,78.1584 C63.4392,78.1304 63.6312,78.1004 63.8152,78.0924 C64.0302,78.0834 64.2422,78.0984 64.4212,78.1144 C64.5932,78.1294 64.7502,78.0704 64.8872,78.0164 C64.9582,77.9884 65.0542,77.9414 65.0942,77.9554 C65.3882,77.9844 65.6712,77.9104 65.9472,77.8364 C66.0802,77.7994 66.2132,77.7624 66.3442,77.7424 C66.5152,77.7164 66.7042,77.6464 66.8602,77.5524 C67.1552,77.3764 67.4572,77.2464 67.7782,77.1104 C68.0172,77.0084 68.2552,76.9064 68.4882,76.7864 C68.9462,76.6714 69.3322,76.3904 69.6742,76.1414 C69.8882,75.9854 70.0952,75.8294 70.2782,75.6254 C70.4992,75.3774 70.7172,75.1374 70.9572,74.9224 C71.1942,74.7114 71.3282,74.4724 71.3682,74.1934 C71.4512,73.6104 71.4622,73.0964 71.4042,72.6214 C71.3182,71.9224 71.0482,71.4024 70.6032,71.0764 C70.4172,70.9404 70.2502,70.7884 70.0722,70.6274 C69.8942,70.4654 69.7092,70.2974 69.4762,70.1274 C69.4662,70.1194 69.4562,70.1124 69.4462,70.1054 C69.4462,70.1054 69.4492,70.1044 69.4502,70.1034 C69.5412,70.0684 69.6322,70.0364 69.7232,70.0034 C69.9462,69.9244 70.1772,69.8424 70.4002,69.7214 C70.9152,69.4414 71.4482,69.1524 71.9992,68.9664 C72.1882,68.9034 72.3452,68.7924 72.4842,68.6944 C72.5462,68.6504 72.6092,68.6064 72.6742,68.5674 C72.7452,68.5244 72.8322,68.5084 72.9322,68.4904 C73.0772,68.4634 73.2582,68.4294 73.4332,68.3024 C73.5812,68.1944 73.7442,68.1284 73.9792,68.0814 C74.0922,68.0584 74.2572,68.0104 74.4002,67.9134 C74.6502,67.7414 74.8852,67.6294 75.1182,67.5704 C75.1452,67.5634 75.1712,67.5514 75.1952,67.5354 C75.4872,67.3444 75.7962,67.2064 76.1242,67.0614 C76.5012,66.8944 76.8902,66.7214 77.2542,66.4584 C77.2932,66.4314 77.3512,66.4074 77.4142,66.3824 C77.4532,66.3664 77.4932,66.3504 77.5312,66.3324 C77.7102,66.2484 77.8892,66.1624 78.0682,66.0774 C78.4632,65.8874 78.8712,65.6914 79.2722,65.5294 C79.5342,65.4234 79.7932,65.3044 80.0512,65.1854 C80.2932,65.0744 80.5342,64.9624 80.7782,64.8634 C80.8542,64.8334 80.9322,64.8084 81.0102,64.7854 L81.2682,64.7034 C81.3732,64.6724 81.4922,64.6374 81.6062,64.5684 C81.9682,64.3494 82.2972,64.2164 82.6142,64.1644 C82.7192,64.1464 82.8172,64.1054 82.9042,64.0694 L83.5342,63.8264 C84.2602,63.5504 85.0092,63.2654 85.7392,62.9294 C85.8022,62.9014 85.9512,62.8324 86.0172,62.8324 C86.0202,62.8354 86.0222,62.8334 86.0222,62.8334 C86.3972,62.8324 86.7222,62.6454 87.0092,62.4814 L87.1482,62.4004 C87.3612,62.2764 87.4982,62.1994 87.6272,62.2294 C87.7352,62.2514 87.8682,62.2264 88.0242,62.1494 C88.1822,62.0704 88.3452,62.0024 88.4742,62.0224 C88.4942,62.0264 88.5142,62.0274 88.5342,62.0254 C88.4872,62.2264 88.4932,62.4114 88.5552,62.5674 C88.6272,62.7504 88.7682,62.8834 88.9642,62.9524 C89.0322,62.9764 89.1002,63.0024 89.1682,63.0284 C89.4802,63.1484 89.8322,63.2864 90.2872,63.2424 C90.2772,63.3364 90.2332,63.4434 90.1512,63.5754 L89.9492,63.8964 C89.6852,64.3174 89.4112,64.7524 89.1882,65.2024 C89.0542,65.4744 88.9092,65.7144 88.7582,65.9174 C88.3662,66.0764 88.0352,66.1984 87.7092,66.2274 C87.5362,66.2424 87.3652,66.2924 87.2002,66.3414 C87.1242,66.3634 87.0482,66.3854 86.9732,66.4034 L86.8492,66.4354 C86.7482,66.4624 86.6422,66.4904 86.5652,66.4914 C86.2332,66.4974 85.9442,66.6094 85.6572,66.8444 C85.6162,66.8784 85.5512,66.9074 85.4832,66.9384 C85.4272,66.9644 85.3702,66.9904 85.3162,67.0214 C85.0482,67.1724 84.8802,67.4434 84.8882,67.7094 L84.8912,67.7964 C84.8942,68.0004 84.8982,68.2104 85.0012,68.3894 C85.0222,68.4264 85.0532,68.4574 85.0902,68.4804 L85.2582,68.5824 C85.3782,68.6544 85.4892,68.7224 85.5982,68.7904 C85.7452,68.8834 85.9162,68.9174 86.1102,68.8904 C86.1722,68.8814 86.2352,68.8694 86.2992,68.8514 C86.5462,68.7814 86.7252,68.7524 86.8482,68.8104 C86.9562,68.8624 87.0572,68.8364 87.1462,68.7974 C87.0722,69.0384 86.9812,69.2884 86.8322,69.5344 C86.6862,69.7754 86.5592,70.0214 86.4322,70.2674 L86.3222,70.4794 C86.2742,70.5714 86.2292,70.6634 86.1852,70.7554 C86.1252,70.8784 86.0662,71.0014 85.9972,71.1214 C85.6862,71.6744 85.4112,72.2404 85.1452,72.7874 L85.0682,72.9454 C84.9262,73.2364 84.8672,73.5144 84.8882,73.7934 C84.9062,74.0344 84.9332,74.2714 84.9602,74.5024 L84.9912,74.7814 C85.0002,74.8624 85.0482,74.9354 85.1192,74.9764 L85.1942,75.0184 C85.2272,75.0364 85.2562,75.0524 85.2812,75.0704 C85.4732,75.2084 85.7212,75.3484 86.0732,75.3184 C86.1152,75.3164 86.1642,75.3254 86.2212,75.3374 C86.2722,75.3474 86.3232,75.3574 86.3912,75.3644 C86.4682,75.3714 86.5732,75.3824 86.6892,75.3514 C86.7842,75.3264 86.8792,75.3024 86.9742,75.2794 C87.2702,75.2064 87.5772,75.1314 87.8922,74.9894 L88.1412,74.8784 C88.4322,74.7494 88.7312,74.6174 89.0252,74.4544 C89.5902,74.2994 90.1292,74.0234 90.6502,73.7554 L90.8632,73.6464 L90.7462,73.4164 L90.9252,73.6204 L91.2742,73.4704 C91.5622,73.3464 91.8502,73.2224 92.1362,73.0924 C92.3642,72.9894 92.6062,72.8734 92.8432,72.6924 C93.0782,72.5134 93.3332,72.3504 93.5822,72.2234 C93.8172,72.1034 94.0562,72.0074 94.3102,71.9054 L94.5702,71.8004 C94.7392,71.7304 94.9302,71.6524 95.0922,71.4764 C95.3452,71.3204 95.5822,71.1414 95.8112,70.9674 C96.0152,70.8134 96.2182,70.6594 96.4312,70.5234 C96.6332,70.3954 96.7932,70.2434 96.9482,70.0964 C97.0342,70.0144 97.1192,69.9334 97.2112,69.8584 C97.3052,69.7814 97.3902,69.6554 97.4262,69.5384 C97.4772,69.3734 97.5112,69.2154 97.5262,69.0694 C97.5372,68.9624 97.5012,68.8584 97.4272,68.7844 C97.3492,68.7064 97.2362,68.6694 97.1192,68.6794 C96.9662,68.6934 96.8122,68.7104 96.6702,68.7264 L96.5022,68.7444 C96.4572,68.7494 96.4032,68.7744 96.3672,68.8004 C95.9852,69.0724 95.6562,69.3074 95.2802,69.4294 C95.0402,69.5064 94.8072,69.6274 94.5812,69.7434 C94.4842,69.7934 94.3872,69.8434 94.2482,69.9154 C93.8502,70.2114 93.4222,70.4074 92.9702,70.6144 C92.6592,70.7574 92.3382,70.9044 92.0262,71.0874 C91.7292,71.1704 91.4432,71.3014 91.1672,71.4274 C91.0752,71.4694 90.9832,71.5114 90.8922,71.5514 C90.6582,71.6524 90.4262,71.7614 90.1942,71.8704 L89.8302,72.0394 C89.6822,72.1074 89.5342,72.1754 89.3852,72.2354 C89.2232,72.2994 89.0612,72.3614 88.8982,72.4244 L88.4612,72.5954 C87.8902,72.8214 87.8902,72.8214 87.3712,72.7114 C87.3572,72.7084 87.3442,72.7054 87.3342,72.7024 C87.3412,72.6834 87.3502,72.6584 87.3642,72.6274 L87.4612,72.3994 C87.5512,72.1834 87.6362,71.9794 87.7442,71.7794 L87.7822,71.7104 C87.8642,71.5594 87.9482,71.4044 88.0042,71.2364 C88.0762,71.0204 88.1812,70.8024 88.3242,70.5704 C88.4042,70.4434 88.4672,70.3094 88.5232,70.1764 C88.7982,69.5314 89.1652,68.8884 89.5232,68.2814 C89.8862,68.1384 90.2022,67.9114 90.5092,67.6914 L90.6532,67.5884 C90.6742,67.5734 90.6932,67.5544 90.7092,67.5334 C90.8052,67.4084 90.9172,67.3504 91.0732,67.3454 C91.2792,67.3384 91.4602,67.2604 91.6342,67.1844 C91.7942,67.1154 91.9592,67.0444 92.1042,67.0124 C92.5982,66.9064 93.0522,66.7444 93.4922,66.5174 C93.6662,66.4794 93.8222,66.3984 93.9732,66.3194 C94.1412,66.2324 94.2992,66.1454 94.4352,66.1564 C94.5572,66.1584 94.6972,66.1104 94.8822,65.9884 C94.9872,65.9194 95.1012,65.8724 95.2232,65.8244 L95.3512,65.7714 C95.4252,65.7404 95.5002,65.7144 95.5752,65.6884 C95.8022,65.6114 96.0592,65.5234 96.2932,65.2934 C96.3012,65.2844 96.3502,65.2444 96.5332,65.2024 C97.2762,65.0334 97.9272,64.6014 98.5562,64.1844 L98.6292,64.1364 C98.8102,64.0164 98.9242,63.8294 98.9452,63.6234 C98.9562,63.5154 98.9492,63.4114 98.9402,63.3074 L98.9362,63.2484 C98.9112,62.8994 98.7042,62.6434 98.3812,62.5644 C98.2882,62.5414 98.2032,62.5064 98.1182,62.4724 C97.9952,62.4234 97.8552,62.3664 97.6952,62.3394 C97.5702,62.3184 97.4372,62.3104 97.3052,62.3014 C97.1572,62.2924 97.0172,62.2844 96.8972,62.2554 L96.7832,62.2274 C96.5572,62.1714 96.3232,62.1134 96.0542,62.1064 L94.5012,62.0624 C94.4592,62.0624 94.4152,62.0624 94.3712,62.0634 C94.3062,62.0654 94.2402,62.0674 94.2012,62.0584 C94.0972,62.0334 93.9962,62.0024 93.8942,61.9724 C93.7082,61.9174 93.5182,61.8594 93.3072,61.8314 L93.3182,61.8204 C93.4582,61.6584 93.6282,61.4374 93.6922,61.1634 C93.7462,60.9344 93.9122,60.7484 94.2472,60.5404 C94.5622,60.3444 94.9212,60.1834 95.3762,60.0314 C95.7052,59.9214 96.0312,59.8014 96.3582,59.6764 L96.4962,59.6224 C97.0232,59.4194 97.5682,59.2084 98.0932,59.1144 L99.8752,58.8024 C99.9922,58.7844 100.1242,58.7624 100.2582,58.7134 C100.5732,58.5954 100.8782,58.5264 101.2462,58.4484 L101.2992,58.4374 C101.3892,58.4204 101.5012,58.3984 101.6092,58.3374 C101.7512,58.2554 101.8982,58.2264 102.0682,58.1934 C102.2162,58.1654 102.3832,58.1324 102.5522,58.0574 C102.9062,58.0384 103.2472,57.9084 103.5762,57.7814 L103.6632,57.7494 C103.7972,57.6984 103.9202,57.6844 104.0752,57.6784 C104.5202,57.6614 104.9992,57.6244 105.4912,57.4644 C105.6502,57.4144 105.7332,57.4314 105.7862,57.4514 C105.8632,57.4824 105.9422,57.4974 106.0192,57.5074 C106.0072,57.7614 105.8912,58.0404 105.7622,58.3084 C105.6782,58.4834 105.5822,58.6544 105.4782,58.8184 C105.1552,59.3254 104.9652,59.7634 104.8782,60.1964 C104.8622,60.2764 104.8222,60.3644 104.7772,60.4194 C104.6052,60.6274 104.5232,60.8444 104.4512,61.0354 L104.4262,61.0984 C104.2422,61.5804 103.9802,62.2124 103.5822,62.8284 C103.4462,63.0404 103.2752,63.3044 103.2292,63.6124 C103.2112,63.7374 103.1042,63.9234 103.0582,64.0034 C102.7902,64.4684 102.6202,64.9034 102.5382,65.3294 C102.4592,65.7394 102.2952,66.1244 102.0492,66.4714 C101.9162,66.6594 101.8392,66.8464 101.7772,67.0074 L101.6902,67.2364 C101.5522,67.6004 101.4132,67.9664 101.2532,68.3294 C101.1242,68.6234 100.9522,68.9184 100.7862,69.1944 C100.6742,69.3814 100.5962,69.5724 100.5202,69.7564 C100.4612,69.8994 100.4032,70.0424 100.3272,70.1804 C100.1282,70.5474 99.9972,70.9064 99.8692,71.2734 C99.8282,71.3904 99.7932,71.5084 99.7582,71.6264 L99.6912,71.8444 C99.6652,71.9264 99.6362,72.0094 99.6062,72.0914 C99.5422,72.2724 99.4762,72.4604 99.4372,72.6504 C99.4222,72.7244 99.4122,72.7974 99.4022,72.8704 C99.3802,73.0374 99.3602,73.1814 99.2722,73.3264 C99.2562,73.3534 99.2452,73.3824 99.2392,73.4144 C99.1592,73.8564 99.2452,74.2484 99.4942,74.5774 C99.7682,74.9394 100.1982,75.0734 100.5422,75.1494 C100.9532,75.2404 101.3432,75.2044 101.7372,75.0384 C101.8922,74.9744 102.0552,74.9464 102.2272,74.9174 C102.3672,74.8934 102.5072,74.8684 102.6472,74.8274 C102.8202,74.7764 102.9862,74.6984 103.1452,74.6234 C103.2962,74.5534 103.4392,74.4864 103.5792,74.4454 C103.8662,74.3594 104.1502,74.2154 104.3392,74.1134 C104.4302,74.0634 104.5202,73.9954 104.6072,73.9274 C104.6882,73.8644 104.7722,73.7994 104.8352,73.7764 C105.0482,73.6984 105.2932,73.5844 105.4982,73.3334 C105.8012,73.3144 106.0362,73.1334 106.2452,72.9724 L106.2962,72.9334 C106.3592,72.8854 106.4202,72.8304 106.4792,72.7764 C106.5982,72.6684 106.7012,72.5744 106.8092,72.5644 C106.8582,72.5594 106.9052,72.5404 106.9452,72.5094 C107.3122,72.2184 107.6652,71.9914 108.0242,71.8134 C108.1232,71.7644 108.1942,71.6844 108.2512,71.6194 C108.2752,71.5924 108.3112,71.5514 108.3282,71.5414 C108.3562,71.5244 108.3962,71.5134 108.4472,71.4994 C108.5362,71.4754 108.6462,71.4444 108.7612,71.3634 L108.8732,71.2884 C108.9902,71.2114 109.1222,71.1244 109.2432,70.9884 C109.3392,70.8814 109.4842,70.7314 109.6462,70.6614 C109.8732,70.5634 110.0692,70.4254 110.2582,70.2914 L110.4022,70.1904 C110.6162,70.0414 110.8362,69.8884 111.0312,69.6814 C111.2112,69.5904 111.3652,69.4694 111.5142,69.3524 C111.6042,69.2814 111.6932,69.2104 111.7882,69.1494 C111.9152,69.0664 112.0222,68.9664 112.1252,68.8704 C112.2612,68.7424 112.3902,68.6224 112.5362,68.5744 C112.6432,68.5404 112.7162,68.4614 112.7732,68.3984 L112.9432,68.2234 C113.0012,68.1644 113.0592,68.1044 113.1182,68.0494 C113.1062,68.0844 113.0922,68.1194 113.0772,68.1554 C112.8782,68.6184 112.7292,69.0844 112.5812,69.5464 C112.5322,69.7024 112.4692,69.8854 112.3862,70.0614 C112.2522,70.3414 112.1662,70.6094 112.1212,70.8804 C112.1082,70.9614 112.0822,71.0434 112.0562,71.1264 L112.0162,71.2634 C111.8802,71.7574 111.7942,72.2714 111.7382,72.9314 C111.7302,73.0154 111.7082,73.2734 111.8642,73.4684 C112.0442,73.6934 112.2712,73.9334 112.6872,73.9354 C112.7222,73.9354 112.7862,73.9354 112.7962,73.9364 C112.9642,74.0394 113.1512,74.0444 113.3012,74.0474 C113.3502,74.0484 113.3992,74.0494 113.4462,74.0544 C113.6492,74.0774 113.8342,74.0344 114.0512,73.9844 C114.0632,73.9834 114.0942,73.9854 114.1242,73.9884 C114.2082,73.9974 114.3342,74.0124 114.4812,73.9494 C114.6692,73.8694 114.8582,73.8374 115.0592,73.8034 L115.1692,73.7844 C115.3532,73.7514 115.5512,73.7124 115.7622,73.6254 C115.9232,73.5594 116.1312,73.4804 116.3212,73.4454 C116.4842,73.4164 116.6342,73.3514 116.7782,73.2884 C116.9192,73.2264 117.0532,73.1684 117.1652,73.1614 C117.2042,73.1594 117.2412,73.1484 117.2752,73.1294 C117.5002,73.0014 117.7292,72.9094 117.9722,72.8124 L118.1782,72.7294 C118.7182,72.5064 119.1762,72.1354 119.6192,71.7764 C119.7582,71.6644 119.8972,71.5524 120.0392,71.4444 C120.1912,71.3274 120.3102,71.1704 120.4442,70.9954 C120.5312,70.8824 120.5582,70.6964 120.5082,70.5644 C120.3772,70.2154 120.0552,70.0664 119.6682,70.1704 C119.4672,70.2264 119.2542,70.3024 119.0352,70.3974 C118.5002,70.6294 118.0182,70.8304 117.5412,70.9374 C117.3702,70.9744 117.1842,71.0374 116.9562,71.1334 C116.5292,71.3144 116.1072,71.4374 115.6602,71.5684 L115.3592,71.6564 C115.1742,71.7114 114.9992,71.7164 114.8142,71.7204 C114.7002,71.7234 114.5872,71.7264 114.4692,71.7394 L114.3442,71.6984 C114.2092,71.6534 114.0732,71.6094 113.9462,71.5404 C113.9702,71.4204 113.9862,71.3024 114.0012,71.1844 C114.0302,70.9554 114.0582,70.7394 114.1612,70.5184 C114.2092,70.4134 114.2412,70.3084 114.2722,70.2014 C114.3122,70.0614 114.3472,69.9414 114.4282,69.8314 C114.4572,69.7904 114.4752,69.7424 114.4772,69.6934 C114.4882,69.4994 114.5872,69.2864 114.6922,69.0614 C114.7272,68.9854 114.7622,68.9094 114.7952,68.8344 C114.9572,68.4554 115.1362,68.0774 115.3212,67.7024 C115.3432,67.6574 115.3922,67.6004 115.4392,67.5444 C115.4552,67.5254 115.4702,67.5064 115.4862,67.4874 C115.6182,67.4164 115.7382,67.3264 115.8542,67.2394 C116.0462,67.0954 116.2152,66.9614 116.4022,66.9644 C116.4472,66.9634 116.4902,66.9554 116.5292,66.9344 L117.5182,66.4134 C117.5832,66.3784 117.6302,66.3254 117.6602,66.2844 C117.7322,66.1844 117.8142,66.1424 117.9712,66.1284 C118.1612,66.1094 118.4492,66.0834 118.7292,65.8264 C118.7612,65.8174 118.7932,65.8074 118.8232,65.7944 C118.9682,65.7334 119.1142,65.6794 119.2602,65.6264 C119.5612,65.5164 119.8732,65.4024 120.1812,65.2194 C120.2142,65.1994 120.2612,65.1834 120.3312,65.1604 C120.3772,65.1444 120.4232,65.1314 120.4702,65.1194 C120.5852,65.0874 120.7152,65.0524 120.8412,64.9774 C120.9662,64.9024 121.0732,64.8074 121.1762,64.7154 C121.2282,64.6694 121.2812,64.6224 121.3352,64.5804 C121.4732,64.4714 121.6052,64.3554 121.7382,64.2394 C121.9302,64.0714 122.1122,63.9114 122.3102,63.7764 C122.4372,63.6894 122.5462,63.5844 122.6522,63.4824 C122.6952,63.4414 122.7372,63.4004 122.7812,63.3604 C122.8322,63.3154 122.8622,63.2504 122.8652,63.1824 L122.8722,63.0454 C122.8752,62.9564 122.8792,62.8724 122.8852,62.7884 C122.8922,62.6864 122.9022,62.5834 122.9122,62.4794 L122.9262,62.3424 C122.9332,62.2574 122.8992,62.1754 122.8342,62.1204 L122.6902,61.9994 Z" id="Fill-102" fill="#2BB3D6"></path>
    </g>
</svg>